<?xml version="1.0" encoding="utf-8"?>
<!-- Generator: Adobe Illustrator 21.0.2, SVG Export Plug-In . SVG Version: 6.00 Build 0)  -->
<svg version="1.1" xmlns="http://www.w3.org/2000/svg" xmlns:xlink="http://www.w3.org/1999/xlink" x="0px" y="0px"
	 viewBox="0 0 2029 1093" style="enable-background:new 0 0 2029 1093;" xml:space="preserve">
<style type="text/css">
	.st0{display:none;}
	.st1{fill:none;stroke:#999999;stroke-linejoin:round;stroke-miterlimit:10;}
	.st2{fill:none;stroke:#999999;stroke-miterlimit:10;}
	.st3{fill:none;stroke:#999999;stroke-linecap:round;stroke-linejoin:round;stroke-miterlimit:10;}
	.st4{fill:none;stroke:#999999;stroke-linecap:round;stroke-miterlimit:10;}
	.st5{fill:none;stroke:#999999;stroke-width:1.2332;stroke-miterlimit:10;}
	.st6{fill:none;stroke:#000000;stroke-width:0.834;stroke-miterlimit:10;}
	.st7{fill:#999999;}
	.st8{fill:#85367F;}
	.st9{fill:#808080;}
	.st10{fill:#B3B3B3;}
	.st11{fill:#666666;}
	.st12{fill:#783173;}
	.st13{fill:#9E4098;}
	.st14{fill:#62285E;}
	.st15{fill:#542250;}
	.st16{fill:none;stroke:#CCCCCC;stroke-width:0.5;stroke-miterlimit:10;}
	.st17{fill:none;stroke:#CCCCCC;stroke-width:0.5019;stroke-linecap:round;stroke-miterlimit:10;}
	.st18{fill:#4D4D4D;}
	.st19{fill:#CCCCCC;}
	.st20{display:none;fill:#666666;}
	.st21{fill:#CCCCCC;stroke:#CCCCCC;stroke-width:0.5;stroke-miterlimit:10;}
	.st22{fill:none;stroke:#CCCCCC;stroke-width:0.5;stroke-linecap:round;stroke-miterlimit:10;}
	.st23{fill:none;stroke:#808080;stroke-miterlimit:10;}
	.st24{fill:#808080;stroke:#999999;stroke-miterlimit:10;}
	.st25{fill:none;stroke:#999999;stroke-width:0.5;stroke-miterlimit:10;}
	.st26{fill:none;stroke:#B3B3B3;stroke-miterlimit:10;}
	.st27{fill:none;stroke:#666666;stroke-miterlimit:10;}
	.st28{display:inline;fill:none;stroke:#FFFF00;stroke-miterlimit:10;}
	.st29{display:inline;fill:none;stroke:#FFFF00;stroke-width:1.2943;stroke-miterlimit:10;}
	.st30{display:inline;fill:#808080;stroke:#FFFF00;stroke-miterlimit:10;}
	.st31{display:inline;fill:#666666;stroke:#FFFF00;stroke-miterlimit:10;}
	.st32{display:inline;fill:#FFFFFF;stroke:#FFFF00;stroke-miterlimit:10;}
</style>
<g id="photo_x5F_low" class="st0">
	
		<image style="display:inline;overflow:visible;" width="4058" height="2186" xlink:href="../../../../../Volumes/MMS_Kyle/WEB/SCCO Admissions/Images/mbkuFromAir3.png"  transform="matrix(0.5 0 0 0.5 0 0)">
	</image>
</g>
<g id="streets">
	<path class="st1" d="M1483,1093c0,0,21-151,30-192s35-141,52-186s50-122,79-176c0,0,11-18,15-27s5-26-24-43
		s-385.5-106.5-385.5-106.5l-453-123l-362-99l-134-35"/>
	<path class="st1" d="M1514.5,1092.5c0,0,9-88,13-112s20-107,27-133s29-111,36-128s51-134,71-173s15-30,15-30s17-35-32-54
		s-400-111-400-111l-464-124l-483-133"/>
	<path class="st1" d="M1758.5,1092.5c0,0,8-156,16-206s28-152,48-208c8.9-24.9,18.5-49.5,28.5-73.9c9.7-23.8,15.2-53,41.9-63
		c26.8-10,58.4-3.1,84.6,4.9l51,16"/>
	<path class="st1" d="M2028.5,485.5l-68-18c0,0-46-13-26-60s55-131,55-131l39-92"/>
	<path class="st1" d="M1955.5-0.5c-47.4,90.1-95.4,179.6-144.2,268.8c-20,36.5-37.7,74.8-63.3,107.9c-25,32.2-70.9,15-103.7,7.3
		c-34.5-8.1-69-16.2-103.6-24.4c-23.4-5.5-46.8-11.1-70.2-16.6l-412-108l-396-103l-184-48"/>
	<path class="st1" d="M1926.5,21.5c-20.8,39-41.6,78-62.5,117c-22.8,42.7-45.6,85.4-68.8,127.9c-10.9,20.1-21.2,40.6-32.5,60.4
		c-10,17.6-20.3,37.6-38.4,48.8c-22.2,13.8-48.8,5.7-72.1-0.3c-29-7.4-58.1-14.7-87.1-22c-46.2-11.6-92.4-23.2-138.6-34.8
		c0,0-0.1,0-0.1,0l-390-100l-337-88l-221-57"/>
	<path class="st1" d="M1535.6,811.1c0,0-8.1-0.6-11.1-2.6s-3-4-5-10s-8-26-8-26s-7-3-15-5s-63-18-63-18l-84-26c0,0-5-2-9-1s0,8,1,12
		s3,12,3,12s2,6-6,8s-186-59-187-60s-38-14-38-14s-39,48-42,52s-56,77-56,77l447,174l29-5c0,0-13-41-12-45s4-12,9-13
		s8.8-3.9,20.9-0.9"/>
	<path class="st1" d="M1511.5,772.5c0,0-2-7,10-13s28.4-13.7,33.7-15.8"/>
	<path class="st1" d="M1559.5,730.6c0-0.1-34,14.9-42,19.9s-9,7-15,6s-176-54.3-176-54.3"/>
	<path class="st1" d="M1782.5,1092.5c0,0,11-208,27-278c16-70.2,37.4-140,61.6-207.8c5.5-15.6,11-33,22.4-45.4
		c20.3-22.1,65.5-10.1,90.1-1.9c18,6,46,12,46,12"/>
	<polyline class="st2" points="1039.5,776.5 1018.5,766.5 993.5,801.5 1018.5,810.5 	"/>
	<path class="st2" d="M978.5,747.5c0,0,14,12,16,13s5,5,5,5s-67,84-68,85s-4,3-4,3"/>
	<path class="st2" d="M984.5,813.5c0,0-30,42-32,43"/>
	<path class="st2" d="M1495.5,1006.5c-2,0-508-197-508-197l-4.4,6"/>
	<line class="st2" x1="1074.5" y1="728.5" x2="1117.5" y2="745.5"/>
	<line class="st2" x1="1064.5" y1="741.5" x2="1108.5" y2="759.5"/>
	<line class="st2" x1="1098.5" y1="772.5" x2="1053.5" y2="756.5"/>
	<path class="st2" d="M1088.5,787.5l-44-17l-21-12c0,0,57-77,59-80s15-21,15-21s8,5,9,6s7,17,7,17"/>
	<polygon class="st1" points="1075.5,800.5 1060,794.1 1034.5,783.5 1025.5,795.5 1067.5,813.5 	"/>
	<line class="st2" x1="1068.5" y1="812.5" x2="1060.5" y2="794.5"/>
	<line class="st2" x1="1058.5" y1="809.5" x2="1050.5" y2="790.5"/>
	<line class="st2" x1="1049.5" y1="805.5" x2="1040.5" y2="785.5"/>
	<line class="st2" x1="1039.5" y1="801.5" x2="1032.5" y2="785.5"/>
	<line class="st1" x1="1127.5" y1="733.5" x2="1153.5" y2="698.5"/>
	<line class="st3" x1="1127.5" y1="733.5" x2="1084.5" y2="716.5"/>
	<line class="st2" x1="1128.5" y1="732.5" x2="1105.5" y2="690.5"/>
	<line class="st2" x1="1132.5" y1="726.5" x2="1110.5" y2="684.5"/>
	<line class="st2" x1="1137.5" y1="720.5" x2="1116.5" y2="681.5"/>
	<line class="st2" x1="1141.5" y1="714.5" x2="1125.5" y2="684.5"/>
	<line class="st2" x1="1146.5" y1="708.5" x2="1135.5" y2="688.5"/>
	<line class="st2" x1="1150.5" y1="702.5" x2="1144.5" y2="691.5"/>
	<line class="st2" x1="1118.5" y1="730.5" x2="1101.5" y2="695.5"/>
	<line class="st2" x1="1109.5" y1="726.5" x2="1097.5" y2="700.5"/>
	<line class="st2" x1="1099.5" y1="722.5" x2="1092.5" y2="706.5"/>
	<line class="st1" x1="1165.5" y1="841" x2="1165.9" y2="868"/>
	<line class="st1" x1="1139.5" y1="833" x2="1139.9" y2="858"/>
	<line class="st1" x1="1115.5" y1="824" x2="1115.9" y2="849"/>
	<line class="st1" x1="1189.5" y1="847.5" x2="1189.5" y2="877.2"/>
	<line class="st1" x1="1215.5" y1="856.5" x2="1215.5" y2="887.4"/>
	<line class="st1" x1="1241.5" y1="865.5" x2="1240.4" y2="897.1"/>
	<line class="st1" x1="1267.6" y1="874.5" x2="1265.4" y2="906.9"/>
	<line class="st1" x1="1292.5" y1="883.5" x2="1291.5" y2="916.5"/>
	<line class="st1" x1="1318.5" y1="891.5" x2="1316.5" y2="926.5"/>
	<line class="st1" x1="1344.5" y1="901.5" x2="1344.5" y2="937.6"/>
	<line class="st1" x1="1371.5" y1="909.5" x2="1374.3" y2="949.2"/>
	<line class="st1" x1="1398.5" y1="918.5" x2="1400" y2="959.2"/>
	<line class="st1" x1="1425.5" y1="928.5" x2="1427.2" y2="969.8"/>
	<line class="st1" x1="1452.5" y1="935.5" x2="1455.5" y2="980.8"/>
	<path class="st1" d="M1426.5,847.5c0,0,16,8,15,9s-21,14-23,15s-2,6,2,8s12,4,19,1s14-13,16-17s8-18,10-20s5-7,2-10s-6-6-9-5
		s-15,5-18,7S1426.5,847.5,1426.5,847.5z"/>
	<path class="st1" d="M1358.5,862.5c0,0,54-28,57-30s23-11,28-13"/>
	<path class="st1" d="M1383.5,870.5c0,0,38-20,43-24l-13.8-12.4"/>
	<line class="st3" x1="1399.5" y1="841.5" x2="1413.5" y2="853.5"/>
	<polyline class="st2" points="991.5,733.5 1014.5,750.5 1084.5,653.5 1077.5,630.5 1049.5,621.5 	"/>
	<polyline class="st2" points="1107.5,555.5 932.5,507.5 905.5,516.5 1022.5,551.5 993.5,587.5 1088.5,617.5 1100.5,600.5 	"/>
	<polyline class="st4" points="654,539.9 593.5,518.5 613.5,495.5 	"/>
	<path class="st4" d="M905.5,516.5c-7.9,6.7-26.4,27.4-26,27c0,0-32-5-36-5s-102,22-102,22l-7,8l-63.2-22.4"/>
	<polyline class="st2" points="869.5,563.5 865.5,558.5 842.5,552.5 763.5,573.5 739.5,605.5 752.5,645.5 	"/>
	<polyline class="st2" points="736.5,663.5 716.5,603.5 567.5,546.5 497.5,554.5 363.5,675.5 	"/>
	<line class="st2" x1="909.5" y1="515.5" x2="1024.5" y2="549.5"/>
	<line class="st3" x1="914.5" y1="513.5" x2="1026.5" y2="546.5"/>
	<line class="st2" x1="920.5" y1="511.5" x2="1028.5" y2="543.5"/>
	<line class="st2" x1="926.5" y1="509.5" x2="1031.5" y2="540.5"/>
	<polyline class="st2" points="922.5,488.5 943.5,495.5 932.5,507.5 	"/>
	<path class="st2" d="M1162.5,389.5c2,0,82,21,82,21L1287,372"/>
	<path class="st2" d="M1151.5,404.5c1,0,85,25,85,25l-50,61l-79,14l-51-13"/>
	<path class="st2" d="M1059.5,454.5c0,0,1,26,2,27s36,13,46,14s55-10,55-10l23-28l-5-6l-40-12l-9,10"/>
	<path class="st5" d="M1087.5,465.5c0-13,13.7-18,30.5-18c10.5-1,30.5,8.1,30.5,18s-8,18-30.5,18
		C1101.2,483.5,1087.5,472.5,1087.5,465.5z"/>
	<path class="st5" d="M1138.5,453.5c1,0,7-2,7-2l3,3l-5,2"/>
	<path class="st5" d="M1145.5,459.5c1-1,7-1,7-1l2,3l-6,1"/>
	<polyline class="st5" points="1148.5,465.5 1156.5,467.5 1154.5,470.5 1147.5,469.5 	"/>
	<polyline class="st5" points="1146.5,472.5 1153.5,475.5 1149.5,478.5 1144.5,475.5 	"/>
	<polyline class="st5" points="1141.5,478.5 1145.5,482.5 1141.5,484.5 1137.5,480.5 	"/>
	<polyline class="st5" points="1130.5,482.5 1133.5,486.5 1127.5,487.5 1125.5,483.5 	"/>
	<polyline class="st5" points="1118.5,483.5 1118.5,487.5 1112.5,487.5 1112.5,483.5 	"/>
	<polyline class="st5" points="1105.5,481.5 1103.5,486.5 1098.5,485.5 1100.5,479.5 	"/>
	<polyline class="st5" points="1096.5,477.5 1091.5,481.5 1087.5,477.5 1092.5,474.5 	"/>
	<polyline class="st5" points="1090.5,471.5 1082.5,474.5 1080.5,470.5 1087.5,467.5 	"/>
	<polyline class="st5" points="1087.5,465.5 1078.5,466.5 1079.5,461.5 1087.5,461.5 	"/>
	<path class="st2" d="M1013.5,562.5c0,0,20-25,22-27"/>
	<polyline class="st2" points="1094.5,452.5 1073.5,440.5 1059.5,454.5 	"/>
	<line class="st2" x1="686" y1="524.8" x2="671.3" y2="546.1"/>
	<line class="st2" x1="669.5" y1="518.5" x2="654" y2="539.9"/>
	<g>
		<g>
			<path d="M826.9,91.6l0.4-1.3l18.4,5.1l-0.4,1.3l-8.5-2.4l-6.3,22.8l-1.5-0.4l6.3-22.8L826.9,91.6z"/>
			<path d="M865.7,113.9c-0.5,1.8-1.2,3.3-2.1,4.7c-0.9,1.4-2.1,2.5-3.4,3.4c-1.3,0.9-2.7,1.4-4.3,1.7c-1.6,0.3-3.3,0.1-5.1-0.4
				s-3.3-1.3-4.6-2.3c-1.2-1-2.2-2.3-2.9-3.7c-0.7-1.4-1-2.9-1.1-4.6c-0.1-1.7,0.1-3.4,0.6-5.2c0.5-1.8,1.2-3.3,2.1-4.7
				c0.9-1.4,2.1-2.5,3.4-3.4c1.3-0.9,2.7-1.4,4.3-1.7c1.6-0.3,3.3-0.1,5.1,0.4s3.3,1.3,4.5,2.3c1.2,1,2.2,2.3,2.8,3.7
				c0.7,1.4,1,2.9,1.1,4.6C866.4,110.4,866.2,112.2,865.7,113.9z M844.3,108c-0.4,1.6-0.6,3.1-0.5,4.6c0.1,1.5,0.4,2.9,1,4.1
				c0.6,1.3,1.4,2.4,2.5,3.3c1.1,0.9,2.4,1.6,4,2.1c1.6,0.4,3.1,0.5,4.4,0.3c1.4-0.3,2.7-0.8,3.8-1.6c1.1-0.8,2.1-1.8,2.9-3
				c0.8-1.2,1.5-2.6,1.9-4.2c0.4-1.6,0.6-3.1,0.5-4.6c-0.1-1.5-0.4-2.9-1-4.1c-0.6-1.3-1.4-2.4-2.4-3.3c-1.1-0.9-2.4-1.6-3.9-2.1
				c-1.6-0.4-3.1-0.5-4.5-0.3c-1.4,0.3-2.7,0.8-3.8,1.6c-1.1,0.8-2.1,1.8-2.9,3C845.4,105,844.8,106.4,844.3,108z"/>
			<path d="M881.4,106.7l0.4-1.3l18.4,5.1l-0.4,1.3l-8.5-2.4l-6.3,22.8l-1.5-0.4l6.3-22.8L881.4,106.7z"/>
			<path d="M903.1,111.3l1.5,0.4l-3,10.9l15.4,4.3l3-10.9l1.5,0.4l-6.7,24.1l-1.5-0.4l3.3-11.9l-15.4-4.3l-3.3,11.9l-1.5-0.4
				L903.1,111.3z"/>
			<path d="M927.1,117.9l16.2,4.5l-0.4,1.3l-14.7-4.1l-2.7,9.6l13.8,3.8l-0.4,1.3l-13.8-3.8l-2.9,10.6l14.9,4.1l-0.4,1.3l-16.3-4.5
				L927.1,117.9z"/>
			<path d="M958,126.5l2.1,0.6l3.2,25l0.1,0l15.5-19.8l2.1,0.6l-6.7,24.1l-1.5-0.4l6.2-22.2l-0.1,0L963.6,154l-1.5-0.4l-3.1-24.8
				l-0.1,0l-6.2,22.2l-1.5-0.4L958,126.5z"/>
			<path d="M1005.1,152.5c-0.5,1.8-1.2,3.3-2.1,4.7c-0.9,1.4-2.1,2.5-3.4,3.4c-1.3,0.9-2.7,1.4-4.3,1.7c-1.6,0.3-3.3,0.1-5.1-0.4
				c-1.8-0.5-3.3-1.3-4.6-2.3c-1.2-1-2.2-2.3-2.9-3.7c-0.7-1.4-1-2.9-1.1-4.6c-0.1-1.7,0.1-3.4,0.6-5.2c0.5-1.8,1.2-3.3,2.1-4.7
				c0.9-1.4,2.1-2.5,3.4-3.4c1.3-0.9,2.7-1.4,4.3-1.7c1.6-0.3,3.3-0.1,5.1,0.4c1.8,0.5,3.3,1.3,4.5,2.3c1.2,1,2.2,2.3,2.8,3.7
				c0.7,1.4,1,2.9,1.1,4.6C1005.8,149,1005.6,150.8,1005.1,152.5z M983.7,146.6c-0.4,1.6-0.6,3.1-0.5,4.6c0.1,1.5,0.4,2.9,1,4.1
				c0.6,1.3,1.4,2.4,2.5,3.3c1.1,0.9,2.4,1.6,4,2.1c1.6,0.4,3.1,0.5,4.4,0.3c1.4-0.3,2.7-0.8,3.8-1.6c1.1-0.8,2.1-1.8,2.9-3
				c0.8-1.2,1.5-2.6,1.9-4.2c0.4-1.6,0.6-3.1,0.5-4.6c-0.1-1.5-0.4-2.9-1-4.1c-0.6-1.3-1.4-2.4-2.4-3.3c-1.1-0.9-2.4-1.6-3.9-2.1
				c-1.6-0.4-3.1-0.5-4.5-0.3c-1.4,0.3-2.7,0.8-3.8,1.6c-1.1,0.8-2.1,1.8-2.9,3C984.7,143.6,984.1,145,983.7,146.6z"/>
			<path d="M1014.4,142.1l-4,14.4c-0.1,0.5-0.3,1-0.4,1.7c-0.1,0.6-0.2,1.3-0.2,2c0,0.7,0.1,1.4,0.2,2.2c0.1,0.7,0.4,1.4,0.9,2.1
				c0.4,0.7,1,1.3,1.7,1.8c0.7,0.5,1.7,1,2.9,1.3c1.5,0.4,2.8,0.5,3.9,0.4c1.1-0.1,2.1-0.5,2.9-1.1c0.8-0.6,1.5-1.4,2.1-2.4
				c0.6-1,1.1-2.2,1.4-3.6l4-14.4l1.5,0.4l-4,14.4c-0.4,1.4-0.9,2.7-1.6,3.9c-0.6,1.2-1.5,2.1-2.4,2.8c-1,0.7-2.1,1.2-3.5,1.4
				c-1.3,0.2-2.9,0-4.7-0.5c-1.4-0.4-2.6-0.9-3.5-1.5c-0.9-0.6-1.6-1.3-2.1-2.1c-0.5-0.8-0.8-1.6-1-2.4c-0.2-0.8-0.3-1.7-0.3-2.5
				c0-0.8,0.1-1.6,0.2-2.3c0.2-0.7,0.3-1.3,0.5-1.9l4-14.4L1014.4,142.1z"/>
			<path d="M1036.9,148.4l1.9,0.5l9.1,26.3l0.1,0l6.1-22.1l1.5,0.4l-6.7,24.1l-1.8-0.5l-9.1-26.5l-0.1,0l-6.2,22.2l-1.5-0.4
				L1036.9,148.4z"/>
			<path d="M1058.2,155.6l0.4-1.3l18.4,5.1l-0.4,1.3l-8.5-2.4l-6.3,22.8l-1.5-0.4l6.3-22.8L1058.2,155.6z"/>
			<path d="M1084.5,161.5l1.6,0.4l2.8,26.7l-1.6-0.4l-0.9-8.6l-11.5-3.2l-5.2,6.9l-1.6-0.4L1084.5,161.5z M1086.3,178.3l-1.4-15
				l-0.1,0l-9.1,12.1L1086.3,178.3z"/>
			<path d="M1098.7,165.5l1.5,0.4l-6.7,24.1l-1.5-0.4L1098.7,165.5z"/>
			<path d="M1105.7,167.4l1.9,0.5l9.1,26.3l0.1,0l6.1-22.1l1.5,0.4l-6.7,24.1l-1.8-0.5l-9.1-26.5l-0.1,0l-6.2,22.2l-1.5-0.4
				L1105.7,167.4z"/>
			<path d="M1143.7,185.4c0.2-1,0.3-2,0.1-2.9c-0.2-0.9-0.5-1.7-1.1-2.4c-0.5-0.7-1.2-1.3-2.1-1.8c-0.9-0.5-1.8-0.9-2.9-1.2
				c-0.7-0.2-1.4-0.3-2.2-0.4c-0.8-0.1-1.6,0-2.4,0.2c-0.8,0.2-1.5,0.6-2.1,1.1c-0.6,0.5-1.1,1.3-1.3,2.3c-0.3,1-0.2,1.8,0.1,2.6
				c0.3,0.7,0.8,1.4,1.4,2c0.7,0.6,1.5,1.1,2.4,1.6c0.9,0.5,1.9,1,2.8,1.5c1,0.5,1.9,1,2.8,1.6c0.9,0.6,1.7,1.2,2.3,1.9
				c0.6,0.7,1.1,1.5,1.3,2.4c0.3,0.9,0.2,1.9-0.1,3.1c-0.3,1.3-0.9,2.2-1.7,2.9c-0.8,0.7-1.6,1.2-2.6,1.5c-1,0.3-2,0.4-3.1,0.4
				c-1.1,0-2.1-0.2-3-0.4c-1.4-0.4-2.7-0.9-3.9-1.6c-1.2-0.6-2.1-1.4-2.8-2.4c-0.7-0.9-1.2-2-1.4-3.2c-0.2-1.2-0.1-2.6,0.3-4.2
				l1.5,0.4c-0.4,1.3-0.6,2.5-0.4,3.5c0.2,1,0.6,2,1.2,2.8c0.6,0.8,1.5,1.5,2.5,2c1,0.6,2.1,1,3.3,1.3c0.7,0.2,1.5,0.3,2.4,0.4
				c0.9,0,1.7,0,2.5-0.3c0.8-0.2,1.5-0.6,2.2-1.2c0.7-0.6,1.1-1.4,1.4-2.4c0.3-1,0.3-1.9,0-2.7c-0.3-0.8-0.8-1.5-1.4-2.1
				c-0.7-0.6-1.5-1.2-2.4-1.7c-0.9-0.5-1.9-1-2.8-1.5c-1-0.5-1.9-1-2.8-1.5c-0.9-0.5-1.7-1.2-2.3-1.8c-0.6-0.7-1.1-1.4-1.4-2.3
				c-0.3-0.9-0.2-1.9,0.1-3c0.3-1.1,0.8-2.1,1.5-2.7c0.7-0.7,1.5-1.2,2.4-1.5c0.9-0.3,1.9-0.4,2.9-0.4c1,0,2,0.2,3,0.4
				c1.3,0.3,2.4,0.8,3.4,1.4c1,0.6,1.8,1.3,2.5,2.1c0.7,0.8,1.1,1.8,1.3,2.9c0.2,1.1,0.2,2.3-0.1,3.6L1143.7,185.4z"/>
		</g>
		<polyline class="st6" points="1142.7,213.5 819.1,123.5 814.3,140.7 778.9,89.2 835.9,63.7 831.1,81 1152.1,169.4 		"/>
	</g>
	<g>
		<path d="M1673.7,776.9l-1.4-0.5l7.5-20.6l1.4,0.5l-3.4,9.5l25.4,9.3l-0.6,1.7l-25.4-9.3L1673.7,776.9z"/>
		<path d="M1702.1,736.2c2,0.7,3.7,1.7,5.2,2.9c1.5,1.2,2.7,2.6,3.6,4.1c0.9,1.6,1.4,3.2,1.5,5.1c0.2,1.8-0.1,3.8-0.9,5.8
			c-0.7,2-1.7,3.7-3.1,5c-1.3,1.3-2.8,2.3-4.5,2.9c-1.7,0.6-3.5,0.9-5.4,0.9c-1.9,0-3.9-0.4-5.8-1.1c-2-0.7-3.7-1.7-5.2-2.9
			c-1.5-1.2-2.7-2.6-3.6-4.1c-0.9-1.6-1.4-3.3-1.5-5.1c-0.1-1.9,0.1-3.8,0.9-5.8c0.7-2,1.7-3.7,3-5c1.3-1.3,2.8-2.3,4.4-2.9
			c1.7-0.6,3.5-0.9,5.4-0.9C1698.3,735.1,1700.2,735.5,1702.1,736.2z M1693.5,760c1.7,0.6,3.4,1,5.2,1c1.7,0.1,3.3-0.2,4.8-0.7
			s2.8-1.4,4-2.5c1.2-1.1,2.1-2.6,2.7-4.3c0.6-1.8,0.9-3.4,0.7-5c-0.2-1.6-0.7-3.1-1.5-4.5c-0.8-1.4-1.9-2.6-3.2-3.6
			c-1.3-1.1-2.9-1.9-4.6-2.5c-1.7-0.6-3.4-1-5.2-1c-1.7-0.1-3.3,0.2-4.8,0.7c-1.5,0.5-2.8,1.4-4,2.5c-1.2,1.1-2.1,2.6-2.7,4.3
			c-0.6,1.8-0.9,3.4-0.7,5.1c0.2,1.6,0.7,3.1,1.5,4.5c0.8,1.4,1.9,2.6,3.2,3.6C1690.2,758.6,1691.7,759.4,1693.5,760z"/>
		<path d="M1693.8,717.3l3.9-10.7c0.6-1.6,1.3-2.9,2.1-3.8c0.8-0.9,1.6-1.6,2.5-2c0.9-0.4,1.8-0.6,2.8-0.6c0.9,0,1.8,0.2,2.7,0.5
			c0.7,0.3,1.4,0.6,1.9,1.1c0.6,0.5,1,1.1,1.3,1.7c0.3,0.6,0.6,1.4,0.7,2.1c0.1,0.8,0.1,1.6-0.1,2.4l0.1,0c0-0.2,0.3-0.6,0.7-1.2
			c0.4-0.6,1-1.1,1.7-1.7c0.7-0.5,1.7-0.9,2.7-1.2c1.1-0.2,2.3-0.1,3.6,0.4c1.2,0.4,2.2,1.1,3,1.9c0.8,0.8,1.3,1.7,1.7,2.8
			c0.3,1,0.5,2.2,0.4,3.5c-0.1,1.3-0.4,2.6-0.9,4l-3.9,10.7L1693.8,717.3z M1709.9,711c0.8-2.3,0.9-4.2,0.3-5.7
			c-0.6-1.5-1.7-2.5-3.4-3.1c-1-0.4-1.9-0.5-2.7-0.3c-0.8,0.1-1.5,0.4-2.2,0.9c-0.6,0.5-1.2,1.1-1.7,1.8c-0.5,0.8-0.9,1.6-1.2,2.5
			l-3.3,9.1l10.7,3.9L1709.9,711z M1723.1,715.8c0.9-2.4,1.1-4.5,0.5-6.2c-0.5-1.7-1.8-3-3.8-3.7c-1.2-0.4-2.2-0.5-3.1-0.3
			c-0.9,0.2-1.7,0.6-2.4,1.2c-0.7,0.6-1.3,1.3-1.8,2.2c-0.5,0.9-0.9,1.7-1.2,2.6l-3.3,9.1l11.8,4.3L1723.1,715.8z"/>
		<path d="M1702.4,693.6l6.6-18l1.4,0.5l-6,16.4l10.7,3.9l5.6-15.4l1.4,0.5l-5.6,15.4l11.8,4.3l6-16.6l1.4,0.5l-6.6,18.2
			L1702.4,693.6z"/>
		<path d="M1713,664.6l0.7-1.8l30.7-0.8l-0.6,1.8l-9.8,0.2l-4.7,12.9l7.4,6.6l-0.6,1.8L1713,664.6z M1732.3,664l-17.3,0.2l0,0.1
			l13,11.5L1732.3,664z"/>
		<path d="M1731,656.9c-2-0.7-3.7-1.7-5.2-2.9c-1.5-1.2-2.7-2.6-3.6-4.1c-0.9-1.6-1.4-3.3-1.5-5.1c-0.1-1.9,0.1-3.8,0.9-5.8
			c0.6-1.6,1.3-2.9,2.1-3.9c0.8-1,1.7-1.8,2.6-2.4c0.9-0.6,1.8-1,2.7-1.2c0.9-0.2,1.7-0.4,2.5-0.4c0.7,0,1.4,0,1.9,0.1
			c0.5,0.1,0.8,0.1,0.8,0.1l-0.6,1.7c-1.2-0.2-2.3-0.2-3.4,0c-1.1,0.2-2.1,0.6-3,1.2c-0.9,0.6-1.7,1.3-2.4,2.2
			c-0.7,0.9-1.2,1.9-1.7,3c-0.6,1.8-0.9,3.4-0.7,5.1c0.2,1.6,0.7,3.1,1.5,4.5c0.8,1.4,1.9,2.6,3.2,3.6c1.3,1.1,2.9,1.9,4.6,2.5
			c1.7,0.6,3.4,1,5.2,1c1.7,0.1,3.3-0.2,4.8-0.7c1.5-0.5,2.8-1.4,4-2.5c1.2-1.1,2.1-2.6,2.7-4.3c0.5-1.3,0.7-2.6,0.5-4
			c-0.1-1.3-0.5-2.6-1.1-3.8c-0.6-1.2-1.4-2.2-2.3-3.2c-1-0.9-2.1-1.7-3.3-2.2l0.6-1.7c1.5,0.7,2.9,1.7,4,2.8c1.1,1.1,2,2.4,2.6,3.7
			c0.6,1.4,1,2.8,1.1,4.3c0.1,1.5-0.2,3-0.7,4.5c-0.7,2-1.7,3.7-3.1,5c-1.3,1.3-2.8,2.3-4.5,2.9c-1.7,0.6-3.5,0.9-5.4,0.9
			C1734.9,658,1733,657.6,1731,656.9z"/>
		<path d="M1727.6,624.5l0.6-1.7l12.2,4.4l6.2-17.1l-12.2-4.4l0.6-1.7l26.8,9.8l-0.6,1.7l-13.2-4.8l-6.2,17.1l13.2,4.8l-0.6,1.7
			L1727.6,624.5z"/>
		<path d="M1736.8,599.3l6.6-18l1.4,0.5l-6,16.4l10.7,3.9l5.6-15.4l1.4,0.5l-5.6,15.4l11.8,4.3l6-16.6l1.4,0.5l-6.6,18.2
			L1736.8,599.3z"/>
		<path d="M1758.5,563.6c-1.2-0.4-2.3-0.5-3.3-0.4c-1,0.1-1.9,0.5-2.8,1c-0.9,0.5-1.6,1.3-2.3,2.2c-0.7,0.9-1.2,2-1.7,3.2
			c-0.3,0.8-0.5,1.6-0.6,2.5c-0.1,0.9-0.1,1.8,0,2.7c0.2,0.9,0.5,1.7,1.1,2.5c0.6,0.7,1.4,1.3,2.5,1.7c1.1,0.4,2.1,0.4,2.9,0.2
			c0.9-0.3,1.7-0.8,2.4-1.5c0.7-0.7,1.4-1.6,2.1-2.6c0.7-1,1.3-2,1.9-3.1c0.6-1.1,1.3-2.1,2-3.1c0.7-1,1.5-1.8,2.3-2.5
			c0.9-0.7,1.8-1.1,2.9-1.3c1.1-0.2,2.2-0.1,3.5,0.4c1.4,0.5,2.5,1.2,3.2,2.2c0.7,0.9,1.2,2,1.5,3.1c0.3,1.1,0.3,2.3,0.2,3.5
			c-0.1,1.2-0.4,2.3-0.8,3.4c-0.6,1.6-1.3,3-2.1,4.2c-0.8,1.3-1.8,2.3-3,3c-1.1,0.7-2.4,1.2-3.8,1.3c-1.4,0.2-3-0.1-4.7-0.8l0.6-1.7
			c1.5,0.6,2.8,0.9,4,0.7c1.2-0.1,2.3-0.5,3.3-1.2c1-0.7,1.8-1.5,2.6-2.6c0.7-1.1,1.3-2.3,1.8-3.6c0.3-0.8,0.5-1.7,0.6-2.7
			c0.1-1,0.1-1.9-0.1-2.9c-0.2-0.9-0.6-1.8-1.2-2.6c-0.6-0.8-1.5-1.4-2.7-1.8c-1.1-0.4-2.1-0.5-3-0.2c-0.9,0.3-1.7,0.8-2.5,1.5
			c-0.8,0.7-1.5,1.6-2.1,2.5c-0.7,1-1.3,2-2,3.1c-0.6,1-1.3,2.1-2,3.1c-0.7,1-1.5,1.8-2.3,2.5c-0.8,0.7-1.7,1.1-2.7,1.3
			c-1,0.2-2.1,0.1-3.4-0.4c-1.3-0.5-2.3-1.1-3-2c-0.7-0.9-1.2-1.8-1.5-2.9c-0.2-1.1-0.3-2.2-0.2-3.4c0.1-1.2,0.4-2.3,0.8-3.3
			c0.5-1.4,1.1-2.7,1.9-3.8c0.8-1.1,1.6-2,2.6-2.7c1-0.7,2.1-1.1,3.4-1.3c1.3-0.2,2.6,0,4.1,0.4L1758.5,563.6z"/>
		<polyline class="st6" points="1788.8,563.3 1705,794.4 1721.7,800.6 1667.6,831.9 1646.6,773 1663.5,779.2 1745.5,550.5 		"/>
	</g>
	<g>
		<g>
			<path d="M1346.7,227.1l0.4-1.5l21.2,5.4l-0.4,1.5l-9.8-2.5l-6.6,26.2l-1.7-0.4l6.6-26.2L1346.7,227.1z"/>
			<path d="M1391.7,251.6c-0.5,2-1.3,3.8-2.3,5.5c-1,1.6-2.3,2.9-3.7,4c-1.5,1-3.1,1.7-4.9,2c-1.8,0.3-3.8,0.2-5.8-0.3
				c-2.1-0.5-3.8-1.4-5.3-2.5c-1.5-1.2-2.6-2.5-3.4-4.1c-0.8-1.6-1.3-3.3-1.4-5.3c-0.1-1.9,0-3.9,0.5-5.9c0.5-2,1.3-3.8,2.3-5.5
				c1-1.6,2.3-2.9,3.7-4c1.5-1,3.1-1.7,4.9-2c1.8-0.3,3.8-0.2,5.8,0.3c2.1,0.5,3.8,1.4,5.3,2.5c1.4,1.2,2.6,2.5,3.3,4.1
				c0.8,1.6,1.3,3.3,1.4,5.3C1392.3,247.6,1392.2,249.6,1391.7,251.6z M1367,245.4c-0.5,1.8-0.6,3.5-0.5,5.2
				c0.1,1.7,0.5,3.3,1.2,4.7c0.7,1.4,1.6,2.7,2.9,3.7c1.2,1.1,2.8,1.8,4.6,2.3s3.5,0.5,5.1,0.2c1.6-0.3,3-1,4.3-1.9
				c1.3-0.9,2.4-2.1,3.3-3.6c0.9-1.4,1.6-3.1,2.1-4.8c0.5-1.8,0.6-3.5,0.5-5.2c-0.1-1.7-0.5-3.3-1.2-4.7c-0.7-1.4-1.6-2.7-2.9-3.7
				c-1.2-1.1-2.8-1.8-4.6-2.3c-1.8-0.5-3.5-0.5-5.1-0.2c-1.6,0.3-3,1-4.3,1.9c-1.3,0.9-2.4,2.1-3.3,3.6
				C1368.2,242,1367.5,243.6,1367,245.4z"/>
			<path d="M1412.7,242.2l9.1,2.3c2.5,0.6,4.4,1.5,5.9,2.7c1.4,1.2,2.5,2.6,3.2,4.1c0.7,1.5,1,3.2,1,4.9c0,1.8-0.2,3.5-0.7,5.3
				c-0.5,2-1.2,3.7-2.1,5.3c-0.9,1.6-2.1,2.8-3.5,3.8c-1.4,1-3,1.6-4.8,1.9c-1.8,0.3-3.8,0.2-6-0.4l-9-2.3L1412.7,242.2z
				 M1415.2,270.7c1.3,0.3,2.6,0.5,4,0.4c1.4-0.1,2.8-0.4,4.1-1.1c1.3-0.7,2.5-1.7,3.5-3.1c1.1-1.4,1.9-3.3,2.5-5.7
				c0.5-1.9,0.7-3.6,0.7-5c0-1.4-0.2-2.7-0.6-3.8c-0.4-1.1-0.9-2-1.5-2.7c-0.7-0.7-1.4-1.3-2.1-1.8c-0.8-0.5-1.6-0.9-2.4-1.2
				c-0.8-0.3-1.6-0.5-2.2-0.7l-7.1-1.8l-6.3,24.7L1415.2,270.7z"/>
			<path d="M1440.1,249.1l1.7,0.4l-7,27.7l-1.7-0.4L1440.1,249.1z"/>
			<path d="M1464.3,263.7c0.2-1.2,0.3-2.3,0-3.3c-0.2-1-0.7-1.9-1.3-2.7c-0.6-0.8-1.4-1.5-2.4-2c-1-0.6-2.1-1-3.4-1.3
				c-0.8-0.2-1.6-0.3-2.6-0.4c-0.9,0-1.8,0.1-2.7,0.3c-0.9,0.3-1.7,0.7-2.3,1.3c-0.7,0.6-1.2,1.5-1.5,2.7c-0.3,1.1-0.2,2.1,0.1,2.9
				c0.4,0.8,0.9,1.6,1.7,2.2c0.8,0.6,1.7,1.2,2.8,1.8c1.1,0.5,2.2,1.1,3.3,1.6c1.1,0.5,2.2,1.1,3.3,1.7c1,0.6,1.9,1.3,2.7,2.1
				c0.8,0.8,1.3,1.7,1.6,2.7c0.3,1,0.3,2.2,0,3.6c-0.4,1.4-1,2.6-1.9,3.4c-0.9,0.8-1.9,1.4-3,1.8c-1.1,0.4-2.3,0.6-3.5,0.5
				c-1.2,0-2.4-0.2-3.4-0.4c-1.6-0.4-3.1-1-4.4-1.7c-1.3-0.7-2.4-1.6-3.3-2.6c-0.9-1.1-1.4-2.3-1.7-3.7c-0.3-1.4-0.2-3,0.3-4.8
				l1.7,0.4c-0.5,1.5-0.6,2.8-0.3,4c0.3,1.2,0.8,2.2,1.5,3.1c0.7,0.9,1.7,1.7,2.9,2.3c1.2,0.6,2.4,1.1,3.8,1.4
				c0.8,0.2,1.7,0.3,2.7,0.4c1,0,1.9-0.1,2.9-0.4c0.9-0.3,1.7-0.8,2.5-1.4c0.7-0.7,1.3-1.6,1.6-2.8c0.3-1.2,0.3-2.2-0.1-3.1
				c-0.4-0.9-0.9-1.7-1.7-2.3c-0.8-0.7-1.7-1.3-2.7-1.9c-1.1-0.6-2.1-1.1-3.3-1.6c-1.1-0.5-2.2-1.1-3.2-1.7c-1.1-0.6-2-1.3-2.7-2
				c-0.7-0.8-1.3-1.6-1.6-2.6c-0.3-1-0.3-2.1,0-3.4c0.3-1.3,0.9-2.4,1.7-3.2c0.8-0.8,1.7-1.4,2.8-1.7c1-0.4,2.1-0.5,3.3-0.5
				c1.2,0,2.3,0.2,3.4,0.4c1.4,0.4,2.8,0.9,3.9,1.5c1.2,0.6,2.1,1.4,2.9,2.3c0.8,0.9,1.3,2,1.6,3.2c0.3,1.2,0.3,2.6,0,4.2
				L1464.3,263.7z"/>
			<path d="M1474.2,257.8l2.1,0.5l11.1,29.8l0.1,0l6.4-25.4l1.7,0.4l-7,27.7l-2-0.5l-11.1-30.1l-0.1,0l-6.5,25.6l-1.7-0.4
				L1474.2,257.8z"/>
			<path d="M1502.1,264.8l18.6,4.7l-0.4,1.5l-16.9-4.3l-2.8,11.1l15.9,4l-0.4,1.5l-15.9-4l-3.1,12.2l17.1,4.3l-0.4,1.5l-18.8-4.8
				L1502.1,264.8z"/>
			<path d="M1544.1,275.5l1.9,0.5l-15.2,13.3l-2.9,11.6l-1.7-0.4l2.9-11.6l-7-18.9l1.9,0.5l6.3,17.2L1544.1,275.5z"/>
			<path d="M1549.1,276.8l1.7,0.4l-6.6,26.2l15.7,4l-0.4,1.5l-17.4-4.4L1549.1,276.8z"/>
			<path d="M1578.3,284.2l1.9,0.5l3.9,30.5l-1.8-0.5l-1.2-9.8l-13.3-3.4l-5.8,8l-1.8-0.5L1578.3,284.2z M1580.8,303.2l-2-17.2
				l-0.1,0l-10.1,14.1L1580.8,303.2z"/>
			<path d="M1594.6,288.3l2.1,0.5l11.1,29.8l0.1,0l6.4-25.4l1.7,0.4l-7,27.7l-2-0.5l-11.1-30.1l-0.1,0l-6.5,25.6l-1.7-0.4
				L1594.6,288.3z"/>
			<path d="M1622.5,295.3l9.1,2.3c2.5,0.6,4.4,1.5,5.9,2.7c1.4,1.2,2.5,2.6,3.2,4.1c0.7,1.5,1,3.2,1,4.9c0,1.8-0.3,3.5-0.7,5.3
				c-0.5,2-1.2,3.7-2.1,5.3c-0.9,1.6-2.1,2.8-3.5,3.8c-1.4,1-3,1.6-4.8,1.9c-1.8,0.3-3.8,0.2-6-0.4l-9-2.3L1622.5,295.3z
				 M1625,323.9c1.3,0.3,2.6,0.5,4,0.4c1.4-0.1,2.8-0.4,4.1-1.1c1.3-0.7,2.5-1.7,3.5-3.1c1.1-1.4,1.9-3.3,2.5-5.7
				c0.5-1.9,0.7-3.6,0.7-5c0-1.4-0.2-2.7-0.6-3.8c-0.4-1.1-0.9-2-1.5-2.7c-0.7-0.7-1.4-1.3-2.1-1.8c-0.8-0.5-1.6-0.9-2.4-1.2
				c-0.8-0.3-1.6-0.5-2.2-0.7l-7.1-1.8l-6.3,24.7L1625,323.9z"/>
		</g>
		<polyline class="st6" points="1345.4,217.2 1644.8,293.2 1649.2,275.9 1685.8,326.6 1629.3,353.4 1633.8,336 1337,261.5 		"/>
	</g>
	<path class="st1" d="M1328.5,854.5c1,0,85-43,85-43"/>
	<line class="st1" x1="1372.5" y1="831.5" x2="1358.5" y2="817.5"/>
	<path class="st1" d="M1361.5,838.5c0-1-14-14-14-14"/>
	<line class="st1" x1="1304.5" y1="845.5" x2="1388.5" y2="803.5"/>
	<line class="st1" x1="1278.5" y1="838.5" x2="1354.5" y2="796.5"/>
	<line class="st1" x1="1311.5" y1="820.5" x2="1297.5" y2="808.5"/>
	<line class="st1" x1="1321.5" y1="814.5" x2="1308.5" y2="803.5"/>
	<line class="st1" x1="1254.5" y1="829.5" x2="1338.5" y2="788.5"/>
	<line class="st1" x1="1375.5" y1="835.5" x2="1385.5" y2="844.5"/>
	<line class="st1" x1="1325.5" y1="818.5" x2="1334.5" y2="826.5"/>
	<line class="st1" x1="1285.5" y1="797.5" x2="1294.5" y2="805.5"/>
	<line class="st1" x1="1238.5" y1="781.5" x2="1246.5" y2="789.5"/>
	<line class="st1" x1="1229.5" y1="819.5" x2="1313.5" y2="779.5"/>
	<line class="st1" x1="1271.5" y1="799.5" x2="1261.5" y2="788.5"/>
	<line class="st1" x1="1260.5" y1="804.5" x2="1249.5" y2="793.5"/>
	<line class="st1" x1="1206.5" y1="812.5" x2="1292.5" y2="774.5"/>
	<line class="st1" x1="1181.5" y1="803.5" x2="1261.5" y2="766.7"/>
	<line class="st1" x1="1223.5" y1="784.5" x2="1212.5" y2="771.5"/>
	<line class="st1" x1="1214.5" y1="788.5" x2="1202.5" y2="775.5"/>
	<path class="st1" d="M1238.5,759.5l-59,27c0,0-10,2-14-6s7-16,9-17s10-4,15,2s9,12,9,12"/>
	<line class="st1" x1="1483.5" y1="764.5" x2="1492.5" y2="793.5"/>
	<line class="st1" x1="1458.5" y1="756.5" x2="1466.5" y2="785.5"/>
	<line class="st1" x1="1434.5" y1="749.5" x2="1441.5" y2="778.5"/>
	<line class="st1" x1="1409.5" y1="742.5" x2="1415.5" y2="772.5"/>
	<polyline class="st1" points="1385.5,734.5 1393.5,768.5 1371.5,762.5 1363.5,727.5 	"/>
	<line class="st1" x1="1371.5" y1="730.5" x2="1364.8" y2="733.2"/>
	<line class="st1" x1="1378.5" y1="733.5" x2="1366" y2="738.3"/>
	<line class="st1" x1="1385.5" y1="735.5" x2="1367.2" y2="743.6"/>
	<line class="st1" x1="1387.1" y1="741.3" x2="1368.5" y2="749.5"/>
	<line class="st1" x1="1388.5" y1="747.2" x2="1370" y2="755.9"/>
	<line class="st1" x1="1389.8" y1="752.8" x2="1371.5" y2="761.5"/>
	<line class="st1" x1="1391.2" y1="758.8" x2="1378.8" y2="764.5"/>
	<line class="st1" x1="1392.4" y1="764" x2="1386.6" y2="766.6"/>
</g>
<g id="health_prof">
	<polyline class="st7" points="1175,509 1177,530 1163,523 1175,509 	"/>
	<polygon class="st8" points="1620,454 1319,371 1148,585 1488,691 	"/>
	<path class="st7" d="M1141,670c0,0-14-5-15-5s-4-3-7-6s-16-11-16-11l-4-3c0,0-1-73,0-77s2-6,2-6l67,22l39-47l4,7l-41,55l-15-4l-7,9
		v24L1141,670z"/>
	<polygon class="st7" points="1491,737 1337,686 1338,644 1488,691 	"/>
	<polygon class="st9" points="1321,631 1313,723 1337,686 1340,603 	"/>
	<polygon class="st9" points="1491,737 1620,492 1620,454 1488,691 	"/>
	<polygon class="st7" points="1313,723 1259,703 1290,622 1321,631 	"/>
	<path class="st10" d="M1148,628c0,0-7,27-7,44c0,0,3,4,11,7s124,43,124,43l7-10.5c0,0,12-29.5,13-31.5s-1-5-1-5l-12,13L1148,628z"
		/>
	<polygon class="st11" points="1298,638 1288,648 1283,688 1295,675 	"/>
	<path class="st9" d="M1283,688c0,0-120-38-125-40s-10-6-10-20s0-24,0-24s37,15,75,26s65,18,65,18L1283,688z"/>
	<path class="st12" d="M1298,638l-10,10c0,0-48-13-55-15s-37-11-56-18s-29-11-29-11l7-9l15,4l41-55l100,31l-15,23l9,1l-15,23l-5,13
		L1298,638z"/>
	<path class="st13" d="M1101,562c0,0,35-46,49-60l25,7l-8,11c0,0,37,12,38,13s2,4,2,4l-39,47L1101,562z"/>
	<polygon class="st14" points="1170,599 1168,584 1207,537 1211,544 	"/>
	<polygon class="st15" points="1311,575 1311,595 1308,593 1304,600 1296,598 	"/>
	<polygon class="st13" points="1290,622 1308,593 1340,603 1321,631 	"/>
	<line class="st16" x1="1179.2" y1="654.9" x2="1176.9" y2="687.7"/>
	<line class="st16" x1="1166.7" y1="650.9" x2="1164.3" y2="683.4"/>
	<line class="st16" x1="1192.2" y1="659.1" x2="1190.5" y2="691.5"/>
	<line class="st16" x1="1205.7" y1="663.4" x2="1203.5" y2="696.9"/>
	<line class="st16" x1="1219.8" y1="667.9" x2="1217.3" y2="701.7"/>
	<line class="st16" x1="1233.1" y1="672.5" x2="1231.1" y2="706.5"/>
	<line class="st17" x1="1278.1" y1="687.2" x2="1276.1" y2="721.5"/>
	<line class="st16" x1="1165.5" y1="667.1" x2="1232.1" y2="689.5"/>
	<polygon class="st11" points="1246,712 1247,694 1263,699 1262,717 	"/>
	<polygon class="st11" points="1503,677 1500,681 1501,698 1504,694 	"/>
	<polygon class="st11" points="1520,648 1517,652 1518,669 1521,665 	"/>
	<polygon class="st11" points="1537,619 1534,623 1535,640 1538,636 	"/>
	<polygon class="st11" points="1554,589 1551,593 1552,610 1555,605 	"/>
	<polygon class="st11" points="1571,558 1568,562 1569,579 1572,574 	"/>
	<polygon class="st11" points="1588,526 1585,530 1586,547 1589,541 	"/>
	<polygon class="st11" points="1605,491 1602,499 1603,516 1606,508 	"/>
</g>
<g id="student_center">
	<polygon class="st9" points="903,849 1057,655 1055,623 901,812 	"/>
	<polygon class="st7" points="901,812 668,731 667,767 903,849 	"/>
	<polygon class="st8" points="838,554 667.8,730.6 901,812 1055,623 	"/>
	<polygon class="st11" points="995,735 994,715 981,731 982,751 	"/>
	<polygon class="st11" points="919,802 916,806 917,823 920,819 	"/>
	<polygon class="st11" points="959,753 956,757 957,774 960,770 	"/>
	<polygon class="st11" points="1009,692 1006,696 1007,713 1010,709 	"/>
	<polygon class="st11" points="1029,666 1026,670 1027,687 1030,683 	"/>
	<polygon class="st11" points="1046,645 1043,649 1044,666 1047,662 	"/>
	<polygon class="st11" points="939,779 936,783 937,800 940,796 	"/>
</g>
<g id="C">
	<polygon class="st7" points="748.5,549.5 901.5,399.5 852.5,387.5 743.5,490.5 	"/>
	<polygon class="st7" points="914,470 849,451 852,432 860.5,433.2 913,448 	"/>
	<polygon class="st7" points="859,383 963,282 963,329 892,406 	"/>
	<polygon class="st10" points="744,490 749,549 614,497 609,447 	"/>
	<polygon class="st11" points="849,451 849,432 865,417 865,435 	"/>
	<polygon class="st12" points="916,438 823,410 849,394 913,412 	"/>
	<path class="st8" d="M609,447c0,0,43-42,86-79s136-119,138-120s5-1,9,0s121,34,121,34L859,383l61,19l-10,16l-67-20l-99,92L609,447z
		"/>
	<polygon class="st9" points="849,441 913,458 913,470 849,451 	"/>
	<polygon class="st9" points="865,435 915,449 915,441 865,428 	"/>
	<path class="st9" d="M687,525c0-1,0-18,0-18l-18-6v17L687,525z"/>
	<polygon class="st11" points="753,489 750,491 751,509 754,506 	"/>
	<polygon class="st11" points="767,475 764,477 765,495 768,492 	"/>
	<polygon class="st11" points="781,461 778,464 779,481 782,478 	"/>
	<polygon class="st11" points="795,447 792,450 793,467 796,464 	"/>
	<polygon class="st11" points="809,435 806,437 807,455 810,452 	"/>
	<polygon class="st11" points="823,421 820,424 821,441 824,438 	"/>
	<polygon class="st11" points="885,362 882,364 883,382 886,379 	"/>
	<polygon class="st11" points="899,348 896,351 897,368 900,365 	"/>
	<polygon class="st11" points="913,335 910,338 911,354 914,351 	"/>
	<polygon class="st11" points="927,321 924,324 925,340 928,337 	"/>
	<polygon class="st11" points="941,309 938,311 939,327 942,324 	"/>
	<polygon class="st11" points="955,295 952,298 953,314 956,311 	"/>
</g>
<g id="D">
	<path class="st11" d="M1017,458c1,0,17,2,17,2l-2,27l-13,3L1017,458z"/>
	<polygon class="st11" points="1018,421 1035,426 1035,452 1017,447 	"/>
	<path class="st11" d="M1022,387l12,1c0,0,4,26,3,26s-14-3-14-3L1022,387z"/>
	<polygon class="st11" points="1135,436 1155,399 1116,420 1116,458 	"/>
	<polygon class="st18" points="1059,416 1116,430 1116,458 1078,437 1059,432 	"/>
	<polygon class="st7" points="1059,416 1125,434 1125,402 1040,377 	"/>
	<polygon class="st9" points="1125,434 1207,338 1207,307 1125,402 	"/>
	<polygon class="st8" points="1036,261 1207,307 1125,402 946,350 	"/>
	<polygon class="st15" points="1039,334 1039,357 1018,353 1029,335 	"/>
	<path class="st15" d="M1040,357c0,0,2-1,3,3s-1,19-3,24s-15.4-11.2-15.4-11.2L1040,357z"/>
	<path class="st9" d="M907,410l3,77l18,1c0,0,20,2,28,4s11,3,13,8c1.5,3.7,5.9,5.7,9.3,7.2c3.3,1.4,6.7,2.6,10.2,3.4
		c2.6,0.6,5.7,1.2,8.2-0.2c4.2-2.4,7.5-6.3,11.2-9.4c3.9-3.4,7.9-6.7,11.9-10.1c0.2-0.1,2.3-1.7,2.2-1.9c0,0-4-13-3-31c0,0,7,3,9,3
		s4,1,4,1v-13l-13-5c0,0,0-17,0-18s-2-3,2-2s11,3,11,3s1-10,0-12s-31-13-31-13s-5,7-20,2s-74-23-74-23l-1,9l6,9L907,410z"/>
	<path class="st11" d="M929,488l-1-24l44,12l-1,27c0,0-4-6-9-8S931,488,929,488z"/>
	<path class="st11" d="M910,426c0,0,0,11,1,14s8,7,10,8s44,14,44,14v-17c0,0-34-10-37-11S914,429,910,426z"/>
	<path class="st19" d="M1032,457l-8-3c0,0-6-2-8,1s-9,11-9,11s-5,5-7,7s-4,4-13,2s-69-20-69-20s-7-2-9-4v7c0,0,73,22,77,23
		s11,2,15-1s16-19,17-20s1-1,3,0s6,2,8,2s3,0,3,0V457z"/>
	<path class="st19" d="M1060,385c1.4,6.9-1,104-1,104s-3,6-14,6c-13,0-15-8-15-8l2-102c0,0,1-3,3-4S1059,380,1060,385z"/>
	<ellipse class="st20" cx="1045" cy="487.5" rx="14" ry="7.5"/>
	<path class="st19" d="M907,420c0,0,7,5,14,7s21,6,28,8s29,9,33,10s9,3,14,1s13-10,15-12s7-8,8-9s1-2,4-1s10,3,10,3v-17c0,0-3,1-6,0
		s-4-3-4-4s0-12,0-13s0-3,1-3s8,4,9,3s-0.7-2.8-1-5c-0.1-0.9,1-3-3-4s-9-1-12,2s-10,11-14,14s-5,5-11,5s-24-6-28-7s-57-17-57-17
		l-1,9l6,9l-5,11V420z"/>
	<path class="st11" d="M984,410v20c0,0-61-20-68-21c-4-0.6-9,1-9,1l5-11l-6-9c0,0,1-3,3-2S959,404,984,410z"/>
	<path class="st13" d="M907,381c0,0,65.6,20.2,71.3,22.1s14.4,5.1,21.6,0S1015,388,1017,387s5-3,9-2.5s8.1,5,8.1,5l7.9-10.5
		c0,0-6,0-8-1s-5-2-1-6s9-10,9-11s3-4-5-6s-16-4-16-4l18-17l-48-13l-18,16l-14-1c0,0-5-2-11,4S907,381,907,381z"/>
	<ellipse class="st11" cx="1046" cy="385.5" rx="14" ry="7.5"/>
	<g>
		<line class="st21" x1="975.5" y1="407.5" x2="975.5" y2="427.5"/>
		<line class="st21" x1="965.5" y1="405" x2="965.5" y2="425"/>
		<line class="st21" x1="954.5" y1="402" x2="954.5" y2="420.5"/>
		<line class="st21" x1="943.5" y1="398.5" x2="943.5" y2="417.5"/>
		<line class="st21" x1="933.5" y1="395.5" x2="933.5" y2="414"/>
		<line class="st21" x1="923.5" y1="392.5" x2="923.5" y2="411"/>
		<line class="st21" x1="956.5" y1="442.5" x2="956.5" y2="459.5"/>
		<line class="st21" x1="946.5" y1="439.5" x2="946.5" y2="456.5"/>
		<line class="st21" x1="934.5" y1="436" x2="934.5" y2="453"/>
		<line class="st21" x1="923.5" y1="432.5" x2="923.5" y2="449"/>
	</g>
	<line class="st22" x1="912.5" y1="399.5" x2="984.5" y2="420.5"/>
	<path class="st22" d="M910.5,434.5c0,0,7,5,13,7c8.1,3.1,41.5,13.1,41.5,13.1"/>
	<path class="st11" d="M1130.5,404.5c0,0-1,18,0,17S1203,334,1203,334l-1-13L1130.5,404.5z"/>
	<g>
		<line class="st23" x1="1139.5" y1="388.5" x2="1139.5" y2="412"/>
		<line class="st23" x1="1148.5" y1="378.5" x2="1148.5" y2="402"/>
		<line class="st23" x1="1157.5" y1="368.5" x2="1157.5" y2="392"/>
		<line class="st23" x1="1166.5" y1="358.5" x2="1166.5" y2="382"/>
		<line class="st23" x1="1175.5" y1="348.5" x2="1175.5" y2="372"/>
		<line class="st23" x1="1184.5" y1="338.5" x2="1184.5" y2="362"/>
		<line class="st23" x1="1193.5" y1="325.5" x2="1193.5" y2="349"/>
	</g>
	<polygon class="st9" points="678,742 677,763 765,795 765,773 	"/>
	<polygon class="st9" points="797,783 796,804 884,836 884,814 	"/>
	<line class="st2" x1="891.5" y1="828.5" x2="673.5" y2="750.5"/>
	<line class="st24" x1="691.6" y1="743" x2="690.4" y2="770"/>
	<line class="st24" x1="706.6" y1="750" x2="705.4" y2="777"/>
	<line class="st24" x1="721.6" y1="755" x2="720.4" y2="782"/>
	<line class="st24" x1="736.6" y1="759" x2="735.4" y2="786"/>
	<line class="st24" x1="751.6" y1="764" x2="750.4" y2="791"/>
	<line class="st24" x1="766.6" y1="770" x2="765.4" y2="797"/>
	<line class="st24" x1="781.6" y1="776" x2="780.4" y2="803"/>
	<line class="st24" x1="796.6" y1="779" x2="795.4" y2="806"/>
	<line class="st24" x1="811.6" y1="787" x2="810.4" y2="814"/>
	<line class="st24" x1="826.6" y1="792" x2="825.4" y2="819"/>
	<line class="st24" x1="841.6" y1="798" x2="840.4" y2="825"/>
	<line class="st24" x1="856.6" y1="802" x2="855.4" y2="829"/>
	<line class="st24" x1="871.6" y1="808" x2="870.4" y2="835"/>
</g>
<g id="library_x2F_parking">
	<polygon class="st11" points="771,205 770,228 749,227 752,211 	"/>
	<polygon class="st7" points="554,474 780,275 780,227 657,337 656,319 547,404 	"/>
	<path class="st11" d="M472,438c1,0,24-16,24-16l8,66l-18,14L472,438z"/>
	<polygon class="st10" points="481,439 452,461 464,553 493,527 	"/>
	<polyline class="st9" points="433,538 464,551 452,461 375,435 374,449 378,462 427,476 433,538 	"/>
	<polygon class="st7" points="427,476 300,572 304,645 433,538 	"/>
	<polygon class="st9" points="375,435 202,381 197,393 374,449 	"/>
	<polygon class="st13" points="427,476 378,462 252,553 300,572 	"/>
	<polygon class="st11" points="374,449 251,539 252,553 378,462 	"/>
	<polygon class="st13" points="452,461 481,439 233,360 202,381 	"/>
	<polygon class="st8" points="197,393 74,481 251,539 374,449 	"/>
	<polygon class="st7" points="493,399 504,488 532,496 520,406 	"/>
	<polyline class="st10" points="520,406 545,386 555,476 532,496 	"/>
	<polygon class="st9" points="533.6,480.3 550,466 542.9,401.7 525,416 	"/>
	<polyline class="st13" points="520,406 493,399 519,378 545,386 	"/>
	<polygon class="st8" points="279,375 593,160 771,205 755.6,220.7 780,227 657,337 656,319 547,406 545,386 519,378 493,399 
		496,422 474,438 	"/>
	<polygon class="st9" points="633,235 550,290 572,297 633,243 	"/>
	<polygon class="st11" points="550,290 547,294 652,322 656,319 	"/>
	<line class="st2" x1="308.5" y1="366.5" x2="331.5" y2="374.5"/>
	<line class="st2" x1="320.5" y1="357.5" x2="343.5" y2="365.5"/>
	<line class="st2" x1="333.5" y1="348.5" x2="355.5" y2="356.5"/>
	<line class="st2" x1="345.5" y1="339.5" x2="368.5" y2="347.5"/>
	<line class="st2" x1="358.5" y1="330.5" x2="379.5" y2="338.5"/>
	<line class="st2" x1="371.5" y1="321.5" x2="393.5" y2="330.5"/>
	<line class="st2" x1="382.5" y1="313.5" x2="404.5" y2="321.5"/>
	<line class="st2" x1="394.5" y1="304.5" x2="415.5" y2="312.5"/>
	<line class="st2" x1="406.5" y1="296.5" x2="427.5" y2="304.5"/>
	<line class="st2" x1="417.5" y1="288.5" x2="440.5" y2="296.5"/>
	<line class="st2" x1="429.5" y1="281.5" x2="450.5" y2="288.5"/>
	<line class="st2" x1="441.5" y1="274.5" x2="461.5" y2="281.5"/>
	<line class="st2" x1="452.5" y1="266.5" x2="472.5" y2="273.5"/>
	<line class="st2" x1="463.5" y1="259.5" x2="483.5" y2="266.5"/>
	<path class="st2" d="M474.5,252.5c1,0,20,6,20,6"/>
	<line class="st2" x1="485.5" y1="245.5" x2="505.5" y2="251.5"/>
	<line class="st2" x1="496.5" y1="238.5" x2="516.5" y2="244.5"/>
	<line class="st2" x1="507.5" y1="231.5" x2="527.5" y2="238.5"/>
	<line class="st2" x1="518.5" y1="224.5" x2="538.5" y2="231.5"/>
	<line class="st2" x1="528.5" y1="217.5" x2="547.5" y2="224.5"/>
	<line class="st2" x1="538.5" y1="210.5" x2="558.5" y2="216.5"/>
	<line class="st2" x1="550.5" y1="202.5" x2="567.5" y2="208.5"/>
	<line class="st2" x1="560.5" y1="195.5" x2="577.5" y2="201.5"/>
	<line class="st2" x1="570.5" y1="188.5" x2="587.5" y2="193.5"/>
	<line class="st2" x1="549.5" y1="380.5" x2="569.5" y2="386.5"/>
	<line class="st2" x1="560.5" y1="370.5" x2="582.5" y2="377.5"/>
	<line class="st2" x1="572.5" y1="362.5" x2="593.5" y2="367.5"/>
	<line class="st2" x1="582.5" y1="352.5" x2="604.5" y2="358.5"/>
	<line class="st2" x1="594.5" y1="344.5" x2="616.5" y2="350.5"/>
	<polyline class="st2" points="626.5,316.5 604.5,335.5 626.5,341.5 	"/>
	<line class="st2" x1="608.5" y1="311.5" x2="592.5" y2="328.5"/>
	<line class="st2" x1="593.5" y1="308.5" x2="579.2" y2="323"/>
	<line class="st2" x1="580.5" y1="303.5" x2="563.6" y2="318.3"/>
	<line class="st2" x1="566.5" y1="299.5" x2="549.6" y2="314.3"/>
	<path class="st2" d="M551.5,296.5c-2.6,2.6-5.1,5.2-7.6,7.8c-6,6.4-14.4,8.4-22.8,9c-6.3,0.4-11-2-16.6-4.8c0,0-6-5,1-2s12,4,12,4"
		/>
	<line class="st2" x1="528.5" y1="304.5" x2="513.5" y2="299.5"/>
	<line class="st2" x1="538.5" y1="296.5" x2="523.5" y2="291.5"/>
	<line class="st2" x1="548.5" y1="289.5" x2="534.5" y2="285.5"/>
	<line class="st2" x1="559.5" y1="282.5" x2="544.5" y2="277.5"/>
	<line class="st2" x1="569.5" y1="275.5" x2="554.5" y2="270.5"/>
	<line class="st2" x1="579.5" y1="269.5" x2="564.5" y2="264.5"/>
	<line class="st2" x1="589.5" y1="262.5" x2="574.5" y2="257.5"/>
	<line class="st2" x1="600.5" y1="255.5" x2="584.5" y2="250.5"/>
	<line class="st2" x1="612.5" y1="248.5" x2="594.5" y2="243.5"/>
	<line class="st2" x1="622.5" y1="242.5" x2="603.5" y2="237.5"/>
	<line class="st2" x1="630.5" y1="235.5" x2="614.5" y2="230.5"/>
	<line class="st2" x1="641.5" y1="238.5" x2="659.5" y2="243.5"/>
	<line class="st2" x1="631.5" y1="245.5" x2="651.5" y2="251.5"/>
	<line class="st2" x1="623.5" y1="255.5" x2="641.5" y2="261.5"/>
	<line class="st2" x1="614.5" y1="263.5" x2="632.5" y2="269.5"/>
	<line class="st2" x1="603.5" y1="270.5" x2="623.5" y2="277.5"/>
	<line class="st2" x1="593.5" y1="279.5" x2="613.5" y2="285.5"/>
	<line class="st2" x1="582.5" y1="288.5" x2="604.5" y2="295.5"/>
	<line class="st2" x1="671.5" y1="321.5" x2="651.5" y2="315.5"/>
	<line class="st2" x1="681.5" y1="312.5" x2="661.5" y2="306.5"/>
	<line class="st2" x1="691.5" y1="303.5" x2="671.5" y2="296.5"/>
	<path class="st2" d="M701.5,293.5c-1,0-20-6-20-6"/>
	<path class="st2" d="M642.5,229.5c0,0-12-3-15-4s-15-7,12,0s30,9,30,9s7,4-1,2s-19-5-19-5"/>
	<line class="st2" x1="712.5" y1="285.5" x2="691.5" y2="278.5"/>
	<line class="st2" x1="724.5" y1="275.5" x2="700.5" y2="268.5"/>
	<line class="st2" x1="732.5" y1="266.5" x2="709.5" y2="260.5"/>
	<line class="st2" x1="742.5" y1="258.5" x2="719.5" y2="251.5"/>
	<line class="st2" x1="750.5" y1="249.5" x2="728.5" y2="243.5"/>
	<line class="st2" x1="759.5" y1="241.5" x2="739.5" y2="235.5"/>
	<line class="st2" x1="747.5" y1="207.5" x2="734.5" y2="219.5"/>
	<line class="st2" x1="732.5" y1="204.5" x2="720.5" y2="215.5"/>
	<line class="st2" x1="718.5" y1="198.5" x2="704.5" y2="212.5"/>
	<line class="st2" x1="703.5" y1="195.5" x2="689.5" y2="208.5"/>
	<line class="st2" x1="689.5" y1="192.5" x2="675.5" y2="204.5"/>
	<line class="st2" x1="674.5" y1="188.5" x2="661.5" y2="199.5"/>
	<line class="st2" x1="660.5" y1="184.5" x2="647.5" y2="195.5"/>
	<line class="st2" x1="646.5" y1="179.5" x2="632.5" y2="192.5"/>
	<polyline class="st2" points="632.5,177.5 619.5,189.5 581.5,178.5 	"/>
	<path class="st2" d="M499.5,330.5c0,0-18-6-21-7s-11-7,5-2s39,10,44,13s12,9,0,6s-22-7-22-7"/>
	<line class="st2" x1="496.5" y1="341.5" x2="520.5" y2="348.5"/>
	<line class="st2" x1="483.5" y1="350.5" x2="508.5" y2="357.5"/>
	<line class="st2" x1="473.5" y1="358.5" x2="502.5" y2="367.5"/>
	<line class="st2" x1="466.5" y1="354.5" x2="440.5" y2="345.5"/>
	<line class="st2" x1="476.5" y1="346.5" x2="451.5" y2="337.5"/>
	<line class="st2" x1="487.5" y1="337.5" x2="463.5" y2="329.5"/>
	<line class="st2" x1="430.5" y1="355.5" x2="455.5" y2="364.5"/>
	<line class="st2" x1="463.5" y1="367.5" x2="490.5" y2="377.5"/>
	<line class="st2" x1="442.5" y1="372.5" x2="418.5" y2="363.5"/>
	<line class="st2" x1="453.5" y1="377.5" x2="477.5" y2="386.5"/>
	<path class="st2" d="M432.5,381.5c0,0-19-7-23-8s-11-1-3,3s46,18,56,19s10,0,0-3s-22-8-22-8"/>
	<path class="st14" d="M279,374l314-214l-1,14c0,0-289,192-300,204L279,374z"/>
	<polygon class="st12" points="592,174 764.8,211.3 771,205 593,160 	"/>
	<polygon class="st14" points="771,205 756,218 756,221 	"/>
	<polygon class="st13" points="756,218 780,224 780,227 756,221 	"/>
	<polygon class="st13" points="780,224 656.7,332.5 657,337 780,227 	"/>
	<polygon class="st13" points="656,319 546.8,401.9 547,406 	"/>
	<line class="st16" x1="535.5" y1="412.5" x2="542.5" y2="469.5"/>
	<line class="st16" x1="531.1" y1="423.9" x2="541.5" y2="414.5"/>
	<line class="st16" x1="532.1" y1="434.6" x2="542.5" y2="425.3"/>
	<line class="st16" x1="534.1" y1="445.4" x2="544.5" y2="436"/>
	<line class="st16" x1="535.1" y1="456.1" x2="545.5" y2="446.7"/>
	<line class="st16" x1="536.1" y1="466.8" x2="546.5" y2="457.5"/>
	<polygon class="st11" points="509.6,466.6 509.6,467 511.1,478.9 519,481.2 517.3,468.6 	"/>
	<polygon class="st11" points="507.6,449.1 507.6,449.5 509.1,461.4 517,463.6 515.3,451 	"/>
	<polygon class="st11" points="505.6,431.6 505.6,431.9 507.1,443.9 515,446.1 513.3,433.5 	"/>
	<polygon class="st11" points="503.6,414 503.6,414.4 505.1,426.3 513,428.6 511.3,416 	"/>
	<polygon class="st11" points="650,333 554,409 555,422 650,344 	"/>
	<polygon class="st11" points="555,429 656,346 656,362 556,445 	"/>
	<polygon class="st11" points="663,340 775,242 775,258 663,356 	"/>
	<polygon class="st11" points="619,417 619,404 640,386 640,398 	"/>
	<line class="st25" x1="553.5" y1="438.5" x2="657.5" y2="353.5"/>
	<line class="st25" x1="551.5" y1="418.5" x2="654.5" y2="335.5"/>
	<line class="st25" x1="660.5" y1="350.5" x2="776.5" y2="247.5"/>
	<line class="st25" x1="605.5" y1="384" x2="605.5" y2="404"/>
	<line class="st25" x1="587.5" y1="401" x2="587.5" y2="421"/>
	<line class="st25" x1="566.5" y1="417" x2="566.5" y2="437"/>
	<line class="st25" x1="565.5" y1="395" x2="565.5" y2="415"/>
	<line class="st25" x1="585.5" y1="381" x2="585.5" y2="401"/>
	<line class="st25" x1="604.5" y1="367" x2="604.5" y2="387"/>
	<line class="st25" x1="622.5" y1="351" x2="622.5" y2="371"/>
	<line class="st25" x1="639.5" y1="335" x2="639.5" y2="355"/>
	<line class="st25" x1="623.5" y1="372" x2="623.5" y2="389"/>
	<line class="st25" x1="640.5" y1="358" x2="640.5" y2="375"/>
	<line class="st25" x1="680.5" y1="324" x2="680.5" y2="344"/>
	<line class="st25" x1="696.5" y1="308" x2="696.5" y2="328"/>
	<line class="st25" x1="712.5" y1="295" x2="712.5" y2="315"/>
	<line class="st25" x1="728.5" y1="281" x2="728.5" y2="301"/>
	<line class="st25" x1="742.5" y1="268" x2="742.5" y2="288"/>
	<line class="st25" x1="759.5" y1="253" x2="759.5" y2="273"/>
	<polygon class="st10" points="74,481 74,570 304,645 300,572 252,553 251,539 	"/>
	<polygon class="st11" points="423,493 311,575 312,593 424,507 	"/>
	<path class="st19" d="M425,544c0,0-2-23-2-23l-42,33l2,26L425,544z"/>
	<path class="st19" d="M370,590c0,0-2-28-2-28l-45,35l2.8,30.3L370,590z"/>
	<polygon class="st11" points="92,497 234,543 234,576 92,534 	"/>
	<g>
		<line class="st26" x1="128.5" y1="506.2" x2="131.6" y2="567.1"/>
		<line class="st26" x1="107.2" y1="500.8" x2="110.3" y2="561.7"/>
		<line class="st26" x1="149.6" y1="508.6" x2="152.8" y2="569.5"/>
		<line class="st26" x1="170.8" y1="521.5" x2="174" y2="582.4"/>
		<line class="st26" x1="213.7" y1="531.3" x2="216.8" y2="592.2"/>
		<line class="st26" x1="192.5" y1="524.4" x2="195.6" y2="585.3"/>
	</g>
	<line class="st26" x1="88.5" y1="514.5" x2="239.5" y2="561.5"/>
	<line class="st2" x1="427" y1="531" x2="317" y2="617"/>
	<line class="st2" x1="307.5" y1="588.5" x2="426.5" y2="498.5"/>
	<g>
		<line class="st2" x1="411.5" y1="495.5" x2="414.5" y2="519.5"/>
		<line class="st2" x1="401.5" y1="500.5" x2="404.5" y2="524.5"/>
		<line class="st2" x1="391.5" y1="513.5" x2="394.5" y2="537.5"/>
		<line class="st2" x1="381.5" y1="524.5" x2="384.5" y2="548.5"/>
		<line class="st2" x1="371.5" y1="529.5" x2="374.5" y2="553.5"/>
		<line class="st2" x1="361.5" y1="534.5" x2="364.5" y2="558.5"/>
		<line class="st2" x1="351.5" y1="543.5" x2="354.5" y2="567.5"/>
		<line class="st2" x1="341.5" y1="551.5" x2="344.5" y2="575.5"/>
		<line class="st2" x1="331.5" y1="556.5" x2="334.5" y2="580.5"/>
		<line class="st2" x1="321.5" y1="565.5" x2="324.5" y2="589.5"/>
	</g>
	<line class="st2" x1="405.5" y1="560.5" x2="402.5" y2="530.5"/>
	<line class="st2" x1="349.5" y1="606.5" x2="346.5" y2="576.5"/>
	<path class="st27" d="M52.4,617.1c114,92.3,248.5,159.1,391,194c110.4,27.1,224.6,35.1,335.9,58.3
		c190.4,39.7,371.2,124.6,523.4,245.7"/>
	<path class="st27" d="M44.6,714C194.3,817.2,374,867.3,552.8,900.6c119.1,22.1,241.8,38.3,349.7,93.3
		c89.5,45.6,163.7,115.4,242.3,178"/>
</g>
<g id="horizon" class="st0">
	<path class="st28" d="M1489.5,691.5c1-5,1320-2262,1320-2262"/>
	<line class="st29" x1="1193.6" y1="527.4" x2="2858" y2="-1570.6"/>
	<polyline class="st28" points="902.5,848.5 2769.8,-1459.3 1484.5,726.5 	"/>
	<line class="st30" x1="1490.5" y1="736.5" x2="2758.7" y2="-1483.6"/>
	<line class="st31" x1="902.5" y1="844.5" x2="888.5" y2="-2723"/>
	<line class="st31" x1="1055.5" y1="650.5" x2="893.5" y2="-2774.5"/>
	<polyline class="st28" points="981.7,750.3 888.5,-2894.5 994.7,735 	"/>
	<polyline class="st28" points="749.5,491.5 2929.5,-1592.5 749.5,549.5 	"/>
	<line class="st28" x1="750.5" y1="508.5" x2="2971.5" y2="-1631.5"/>
	<line class="st28" x1="463.5" y1="552.5" x2="2929.5" y2="-1570.5"/>
	<line class="st28" x1="304.5" y1="645.5" x2="941.5" y2="-3002.5"/>
	<polyline class="st28" points="902.5,825 2956.5,-1689.5 902.5,839.4 	"/>
	<line class="st28" x1="1488.6" y1="700.5" x2="2829.5" y2="-1599.5"/>
	<line class="st32" x1="373.5" y1="448.5" x2="-7110.5" y2="-1907.5"/>
	<line class="st32" x1="481" y1="439" x2="-7184.5" y2="-2002.5"/>
	<line class="st32" x1="303.5" y1="644.5" x2="-7184.5" y2="-1829.5"/>
	<line class="st32" x1="250.5" y1="538.5" x2="-7165.5" y2="-1873.5"/>
</g>
</svg>
